<svg width="166" height="74" viewBox="0 0 166 74" fill="none" xmlns="http://www.w3.org/2000/svg">
<path d="M135.124 5.06901C135.769 3.32777 138.231 3.32778 138.876 5.06901L144.513 20.3049C144.716 20.8523 145.148 21.2839 145.695 21.4865L160.931 27.1243C162.672 27.7686 162.672 30.2314 160.931 30.8757L145.695 36.5135C145.148 36.7161 144.716 37.1477 144.513 37.6951L138.876 52.931C138.231 54.6722 135.769 54.6722 135.124 52.931L129.487 37.6951C129.284 37.1477 128.852 36.7161 128.305 36.5135L113.069 30.8757C111.328 30.2314 111.328 27.7686 113.069 27.1243L128.305 21.4865C128.852 21.2839 129.284 20.8523 129.487 20.3049L135.124 5.06901Z" fill="#E31736"/>
<path d="M129.648 33.168C128.816 33.168 128.116 32.984 127.548 32.616C126.98 32.24 126.58 31.732 126.348 31.092L127.764 30.264C128.092 31.12 128.736 31.548 129.696 31.548C130.16 31.548 130.5 31.464 130.716 31.296C130.932 31.128 131.04 30.916 131.04 30.66C131.04 30.364 130.908 30.136 130.644 29.976C130.38 29.808 129.908 29.628 129.228 29.436C128.852 29.324 128.532 29.212 128.268 29.1C128.012 28.988 127.752 28.84 127.488 28.656C127.232 28.464 127.036 28.224 126.9 27.936C126.764 27.648 126.696 27.312 126.696 26.928C126.696 26.168 126.964 25.564 127.5 25.116C128.044 24.66 128.696 24.432 129.456 24.432C130.136 24.432 130.732 24.6 131.244 24.936C131.764 25.264 132.168 25.724 132.456 26.316L131.064 27.12C130.728 26.4 130.192 26.04 129.456 26.04C129.112 26.04 128.84 26.12 128.64 26.28C128.448 26.432 128.352 26.632 128.352 26.88C128.352 27.144 128.46 27.36 128.676 27.528C128.9 27.688 129.324 27.864 129.948 28.056C130.204 28.136 130.396 28.2 130.524 28.248C130.66 28.288 130.84 28.356 131.064 28.452C131.296 28.54 131.472 28.624 131.592 28.704C131.72 28.784 131.864 28.892 132.024 29.028C132.184 29.164 132.304 29.304 132.384 29.448C132.472 29.592 132.544 29.768 132.6 29.976C132.664 30.176 132.696 30.396 132.696 30.636C132.696 31.412 132.412 32.028 131.844 32.484C131.284 32.94 130.552 33.168 129.648 33.168ZM136.96 28.488H135.604V30.984C135.604 31.192 135.656 31.344 135.76 31.44C135.864 31.536 136.016 31.592 136.216 31.608C136.416 31.616 136.664 31.612 136.96 31.596V33C135.896 33.12 135.144 33.02 134.704 32.7C134.272 32.38 134.056 31.808 134.056 30.984V28.488H133.012V27H134.056V25.788L135.604 25.32V27H136.96V28.488ZM142.424 27H143.972V33H142.424V32.292C141.96 32.876 141.308 33.168 140.468 33.168C139.668 33.168 138.98 32.864 138.404 32.256C137.836 31.64 137.552 30.888 137.552 30C137.552 29.112 137.836 28.364 138.404 27.756C138.98 27.14 139.668 26.832 140.468 26.832C141.308 26.832 141.96 27.124 142.424 27.708V27ZM139.568 31.224C139.88 31.536 140.276 31.692 140.756 31.692C141.236 31.692 141.632 31.536 141.944 31.224C142.264 30.904 142.424 30.496 142.424 30C142.424 29.504 142.264 29.1 141.944 28.788C141.632 28.468 141.236 28.308 140.756 28.308C140.276 28.308 139.88 28.468 139.568 28.788C139.256 29.1 139.1 29.504 139.1 30C139.1 30.496 139.256 30.904 139.568 31.224ZM146.924 28.032C147.068 27.648 147.304 27.36 147.632 27.168C147.968 26.976 148.34 26.88 148.748 26.88V28.608C148.276 28.552 147.852 28.648 147.476 28.896C147.108 29.144 146.924 29.556 146.924 30.132V33H145.376V27H146.924V28.032Z" fill="white"/>
<path d="M27 46.564V49.12C27 52.816 25.836 55.816 23.508 58.12C21.204 60.4 18.204 61.54 14.508 61.54C10.572 61.54 7.332 60.28 4.788 57.76C2.268 55.24 1.008 52.132 1.008 48.436C1.008 44.74 2.268 41.62 4.788 39.076C7.308 36.532 10.428 35.26 14.148 35.26C16.5 35.26 18.648 35.788 20.592 36.844C22.56 37.9 24.096 39.304 25.2 41.056L19.728 44.188C19.224 43.396 18.48 42.76 17.496 42.28C16.536 41.8 15.444 41.56 14.22 41.56C12.228 41.56 10.596 42.208 9.324 43.504C8.052 44.8 7.416 46.456 7.416 48.472C7.416 50.416 8.04 52.06 9.288 53.404C10.56 54.748 12.336 55.42 14.616 55.42C17.544 55.42 19.476 54.316 20.412 52.108H14.292V46.564H27ZM42.4555 43H48.4315V61H42.4555V59.344C41.2315 60.784 39.5275 61.504 37.3435 61.504C34.9435 61.504 32.9275 60.604 31.2955 58.804C29.6875 56.98 28.8835 54.712 28.8835 52C28.8835 49.288 29.6875 47.032 31.2955 45.232C32.9275 43.408 34.9435 42.496 37.3435 42.496C39.5275 42.496 41.2315 43.216 42.4555 44.656V43ZM35.9395 54.844C36.6355 55.564 37.5475 55.924 38.6755 55.924C39.8035 55.924 40.7155 55.564 41.4115 54.844C42.1075 54.124 42.4555 53.176 42.4555 52C42.4555 50.824 42.1075 49.876 41.4115 49.156C40.7155 48.436 39.8035 48.076 38.6755 48.076C37.5475 48.076 36.6355 48.436 35.9395 49.156C35.2435 49.876 34.8955 50.824 34.8955 52C34.8955 53.176 35.2435 54.124 35.9395 54.844ZM64.5688 35.8H70.5448V61H64.5688V59.344C63.3448 60.784 61.6408 61.504 59.4568 61.504C57.0568 61.504 55.0408 60.604 53.4088 58.804C51.8008 56.98 50.9968 54.712 50.9968 52C50.9968 49.288 51.8008 47.032 53.4088 45.232C55.0408 43.408 57.0568 42.496 59.4568 42.496C61.6408 42.496 63.3448 43.216 64.5688 44.656V35.8ZM58.0528 54.844C58.7488 55.564 59.6608 55.924 60.7888 55.924C61.9168 55.924 62.8288 55.564 63.5248 54.844C64.2208 54.124 64.5688 53.176 64.5688 52C64.5688 50.824 64.2208 49.876 63.5248 49.156C62.8288 48.436 61.9168 48.076 60.7888 48.076C59.6608 48.076 58.7488 48.436 58.0528 49.156C57.3568 49.876 57.0088 50.824 57.0088 52C57.0088 53.176 57.3568 54.124 58.0528 54.844ZM86.8621 43H92.7661V60.28C92.7661 61.72 92.4901 62.992 91.9381 64.096C91.4101 65.224 90.6901 66.112 89.7781 66.76C88.8661 67.432 87.8581 67.924 86.7541 68.236C85.6741 68.572 84.5221 68.74 83.2981 68.74C81.3061 68.74 79.5301 68.368 77.9701 67.624C76.4101 66.88 75.2341 65.788 74.4421 64.348L79.4101 61.468C80.2741 62.836 81.5461 63.52 83.2261 63.52C84.3061 63.52 85.1821 63.244 85.8541 62.692C86.5261 62.14 86.8621 61.336 86.8621 60.28V58.552C85.6381 60.04 83.9581 60.784 81.8221 60.784C79.3501 60.784 77.2981 59.896 75.6661 58.12C74.0581 56.344 73.2541 54.184 73.2541 51.64C73.2541 49.096 74.0581 46.936 75.6661 45.16C77.2981 43.384 79.3501 42.496 81.8221 42.496C83.9581 42.496 85.6381 43.24 86.8621 44.728V43ZM80.2741 54.34C80.9941 55.036 81.9181 55.384 83.0461 55.384C84.1741 55.384 85.0861 55.036 85.7821 54.34C86.5021 53.62 86.8621 52.72 86.8621 51.64C86.8621 50.56 86.5021 49.672 85.7821 48.976C85.0861 48.256 84.1741 47.896 83.0461 47.896C81.9181 47.896 80.9941 48.256 80.2741 48.976C79.5781 49.672 79.2301 50.56 79.2301 51.64C79.2301 52.72 79.5781 53.62 80.2741 54.34ZM101.521 54.196C102.121 55.66 103.465 56.392 105.553 56.392C106.849 56.392 107.941 55.972 108.829 55.132L113.149 58.156C111.373 60.388 108.793 61.504 105.409 61.504C102.361 61.504 99.9128 60.616 98.0648 58.84C96.2408 57.04 95.3288 54.772 95.3288 52.036C95.3288 49.324 96.2288 47.056 98.0288 45.232C99.8288 43.408 102.121 42.496 104.905 42.496C107.593 42.496 109.813 43.396 111.565 45.196C113.317 46.996 114.193 49.252 114.193 51.964C114.193 52.756 114.109 53.5 113.941 54.196H101.521ZM101.449 50.056H108.361C107.881 48.376 106.753 47.536 104.977 47.536C103.129 47.536 101.953 48.376 101.449 50.056ZM127.462 48.724H123.718V53.944C123.718 54.736 124.006 55.228 124.582 55.42C125.158 55.612 126.118 55.672 127.462 55.6V61C123.886 61.432 121.366 61.108 119.902 60.028C118.462 58.924 117.742 56.944 117.742 54.088V48.724H115.042V43H117.742V39.76L123.718 37.96V43H127.462V48.724Z" fill="#09090B"/>
</svg>
