<svg width="58" height="58" viewBox="0 0 58 58" fill="none" xmlns="http://www.w3.org/2000/svg">
<path d="M27.1243 5.06901C27.7686 3.32777 30.2314 3.32778 30.8757 5.06901L36.5135 20.3049C36.7161 20.8523 37.1477 21.2839 37.6951 21.4865L52.931 27.1243C54.6722 27.7686 54.6722 30.2314 52.931 30.8757L37.6951 36.5135C37.1477 36.7161 36.7161 37.1477 36.5135 37.6951L30.8757 52.931C30.2314 54.6722 27.7686 54.6722 27.1243 52.931L21.4865 37.6951C21.2839 37.1477 20.8523 36.7161 20.3049 36.5135L5.06901 30.8757C3.32777 30.2314 3.32778 27.7686 5.06901 27.1243L20.3049 21.4865C20.8523 21.2839 21.2839 20.8523 21.4865 20.3049L27.1243 5.06901Z" fill="#E31736"/>
<path d="M21.648 33.168C20.816 33.168 20.116 32.984 19.548 32.616C18.98 32.24 18.58 31.732 18.348 31.092L19.764 30.264C20.092 31.12 20.736 31.548 21.696 31.548C22.16 31.548 22.5 31.464 22.716 31.296C22.932 31.128 23.04 30.916 23.04 30.66C23.04 30.364 22.908 30.136 22.644 29.976C22.38 29.808 21.908 29.628 21.228 29.436C20.852 29.324 20.532 29.212 20.268 29.1C20.012 28.988 19.752 28.84 19.488 28.656C19.232 28.464 19.036 28.224 18.9 27.936C18.764 27.648 18.696 27.312 18.696 26.928C18.696 26.168 18.964 25.564 19.5 25.116C20.044 24.66 20.696 24.432 21.456 24.432C22.136 24.432 22.732 24.6 23.244 24.936C23.764 25.264 24.168 25.724 24.456 26.316L23.064 27.12C22.728 26.4 22.192 26.04 21.456 26.04C21.112 26.04 20.84 26.12 20.64 26.28C20.448 26.432 20.352 26.632 20.352 26.88C20.352 27.144 20.46 27.36 20.676 27.528C20.9 27.688 21.324 27.864 21.948 28.056C22.204 28.136 22.396 28.2 22.524 28.248C22.66 28.288 22.84 28.356 23.064 28.452C23.296 28.54 23.472 28.624 23.592 28.704C23.72 28.784 23.864 28.892 24.024 29.028C24.184 29.164 24.304 29.304 24.384 29.448C24.472 29.592 24.544 29.768 24.6 29.976C24.664 30.176 24.696 30.396 24.696 30.636C24.696 31.412 24.412 32.028 23.844 32.484C23.284 32.94 22.552 33.168 21.648 33.168ZM28.9603 28.488H27.6043V30.984C27.6043 31.192 27.6563 31.344 27.7603 31.44C27.8643 31.536 28.0163 31.592 28.2163 31.608C28.4163 31.616 28.6643 31.612 28.9603 31.596V33C27.8963 33.12 27.1443 33.02 26.7043 32.7C26.2723 32.38 26.0563 31.808 26.0563 30.984V28.488H25.0123V27H26.0563V25.788L27.6043 25.32V27H28.9603V28.488ZM34.4243 27H35.9723V33H34.4243V32.292C33.9603 32.876 33.3083 33.168 32.4683 33.168C31.6683 33.168 30.9803 32.864 30.4043 32.256C29.8363 31.64 29.5522 30.888 29.5522 30C29.5522 29.112 29.8363 28.364 30.4043 27.756C30.9803 27.14 31.6683 26.832 32.4683 26.832C33.3083 26.832 33.9603 27.124 34.4243 27.708V27ZM31.5683 31.224C31.8803 31.536 32.2763 31.692 32.7563 31.692C33.2363 31.692 33.6323 31.536 33.9443 31.224C34.2643 30.904 34.4243 30.496 34.4243 30C34.4243 29.504 34.2643 29.1 33.9443 28.788C33.6323 28.468 33.2363 28.308 32.7563 28.308C32.2763 28.308 31.8803 28.468 31.5683 28.788C31.2563 29.1 31.1003 29.504 31.1003 30C31.1003 30.496 31.2563 30.904 31.5683 31.224ZM38.924 28.032C39.068 27.648 39.304 27.36 39.632 27.168C39.968 26.976 40.34 26.88 40.748 26.88V28.608C40.276 28.552 39.852 28.648 39.476 28.896C39.108 29.144 38.924 29.556 38.924 30.132V33H37.376V27H38.924V28.032Z" fill="white"/>
</svg>
